<svg width="14" height="14" viewBox="0 0 14 14" fill="none" xmlns="http://www.w3.org/2000/svg">
<path d="M6.33337 11H7.66671V9.66668H6.33337V11ZM7.00004 0.333344C3.32004 0.333344 0.333374 3.32001 0.333374 7.00001C0.333374 10.68 3.32004 13.6667 7.00004 13.6667C10.68 13.6667 13.6667 10.68 13.6667 7.00001C13.6667 3.32001 10.68 0.333344 7.00004 0.333344ZM7.00004 12.3333C4.06004 12.3333 1.66671 9.94001 1.66671 7.00001C1.66671 4.06001 4.06004 1.66668 7.00004 1.66668C9.94004 1.66668 12.3334 4.06001 12.3334 7.00001C12.3334 9.94001 9.94004 12.3333 7.00004 12.3333ZM7.00004 3.00001C5.52671 3.00001 4.33337 4.19334 4.33337 5.66668H5.66671C5.66671 4.93334 6.26671 4.33334 7.00004 4.33334C7.73337 4.33334 8.33337 4.93334 8.33337 5.66668C8.33337 7.00001 6.33337 6.83334 6.33337 9.00001H7.66671C7.66671 7.50001 9.66671 7.33334 9.66671 5.66668C9.66671 4.19334 8.47337 3.00001 7.00004 3.00001Z" fill="#98A2B3"/>
</svg>
